<?xml version="1.0" encoding="utf-8"?>
<!-- Generator: Adobe Illustrator 23.0.6, SVG Export Plug-In . SVG Version: 6.00 Build 0)  -->
<svg version="1.1" id="Capa_1" xmlns="http://www.w3.org/2000/svg" xmlns:xlink="http://www.w3.org/1999/xlink" x="0px" y="0px"
	 viewBox="0 0 60 60" style="enable-background:new 0 0 60 60;" xml:space="preserve">
<style type="text/css">
	.st0{fill:#A8A8B2;}
</style>
<g>
	<path class="st0" d="M14,23.5c-0.3,0-0.5,0.2-0.5,0.4L2,52.5v1c0,0.7,0,1,0.6,1h44.8c1.2,0,2.2-0.8,2.5-1.8L60,24.5c0,0,0-0.6,0-1
		H14z"/>
	<path class="st0" d="M12.7,21.5H53h1v-6.3c0-1.5-1.2-2.7-2.7-2.7H26.5l-5-7H2.7C1.2,5.5,0,6.7,0,8.2V50l10.3-26.7
		C10.6,22.3,11.6,21.5,12.7,21.5z"/>
</g>
</svg>
