<?xml version="1.0" encoding="utf-8"?>
<!-- Generator: Adobe Illustrator 23.0.6, SVG Export Plug-In . SVG Version: 6.00 Build 0)  -->
<svg version="1.1" id="Capa_1" xmlns="http://www.w3.org/2000/svg" xmlns:xlink="http://www.w3.org/1999/xlink" x="0px" y="0px"
	 viewBox="0 0 60 60" style="enable-background:new 0 0 60 60;" xml:space="preserve">
<style type="text/css">
	.st0{fill:#A8A8B2;}
</style>
<g>
	<g>
		<path class="st0" d="M30,15.8L8.6,33.4c0,0,0,0.1,0,0.1s0,0.1,0,0.1v17.9c0,0.6,0.2,1.2,0.7,1.7c0.5,0.5,1,0.7,1.7,0.7h14.3V39.6
			h9.5v14.3H49c0.6,0,1.2-0.2,1.7-0.7c0.5-0.5,0.7-1,0.7-1.7V33.6c0-0.1,0-0.2,0-0.2L30,15.8z"/>
		<path class="st0" d="M59.6,29.4l-8.1-6.8V7.4c0-0.4-0.1-0.6-0.3-0.9c-0.2-0.2-0.5-0.3-0.9-0.3h-7.1c-0.4,0-0.6,0.1-0.9,0.3
			c-0.2,0.2-0.3,0.5-0.3,0.9v7.3l-9.1-7.6c-0.8-0.6-1.7-1-2.8-1s-2,0.3-2.8,1L0.4,29.4C0.2,29.6,0,29.8,0,30.2
			c0,0.3,0.1,0.6,0.3,0.9l2.3,2.7C2.8,34,3,34.2,3.4,34.2c0.3,0,0.6-0.1,0.9-0.3L30,12.5l25.8,21.5c0.2,0.2,0.5,0.3,0.8,0.3h0.1
			c0.3-0.1,0.6-0.2,0.8-0.4l2.3-2.7c0.2-0.2,0.3-0.5,0.3-0.9C60,29.8,59.8,29.6,59.6,29.4z"/>
	</g>
</g>
</svg>
