<?xml version="1.0" encoding="utf-8"?>
<!-- Generator: Adobe Illustrator 23.0.6, SVG Export Plug-In . SVG Version: 6.00 Build 0)  -->
<svg version="1.1" id="Capa_1" xmlns="http://www.w3.org/2000/svg" xmlns:xlink="http://www.w3.org/1999/xlink" x="0px" y="0px"
	 viewBox="0 0 60 60" style="enable-background:new 0 0 60 60;" xml:space="preserve">
<style type="text/css">
	.st0{fill:#A8A8B2;}
</style>
<g>
	<path class="st0" d="M56.7,3.3C54.5,1.1,51.9,0,48.8,0H11.2C8.2,0,5.5,1.1,3.3,3.3S0,8.1,0,11.2v37.5c0,3.1,1.1,5.7,3.3,7.9
		S8.2,60,11.2,60h37.5c3.1,0,5.7-1.1,7.9-3.3s3.3-4.9,3.3-7.9V11.2C60,8.1,58.9,5.5,56.7,3.3z M49.1,45.5c-0.5,1.2-1.8,2.2-3.7,3.1
		c-1.9,0.9-3.6,1.3-5.1,1.3c-0.4,0-0.9,0-1.3-0.1c-0.5-0.1-0.9-0.1-1.2-0.2c-0.3-0.1-0.8-0.2-1.3-0.4C36,49.2,35.6,49,35.4,49
		c-0.2-0.1-0.7-0.3-1.3-0.5c-0.6-0.2-1-0.4-1.2-0.4c-4.3-1.6-8.4-4.4-12.5-8.5s-6.9-8.3-8.5-12.5c-0.1-0.2-0.2-0.5-0.4-1.2
		c-0.2-0.6-0.4-1.1-0.5-1.3c-0.1-0.2-0.2-0.6-0.4-1.1c-0.2-0.5-0.3-1-0.4-1.3c-0.1-0.3-0.1-0.7-0.2-1.2C10,20.5,10,20.1,10,19.6
		c0-1.5,0.4-3.2,1.3-5.1s1.9-3.1,3.1-3.7c1.4-0.6,2.7-0.9,3.9-0.9c0.3,0,0.5,0,0.6,0.1s0.3,0.3,0.6,0.7c0.3,0.4,0.6,0.9,1,1.6
		c0.4,0.6,0.7,1.3,1,1.9s0.7,1.2,1,1.8c0.3,0.6,0.5,1,0.6,1.1c0.1,0.1,0.2,0.4,0.5,0.7c0.3,0.4,0.5,0.7,0.6,1
		c0.1,0.3,0.2,0.6,0.2,0.8c0,0.4-0.3,0.9-0.8,1.4c-0.5,0.6-1.1,1.1-1.8,1.5s-1.2,1-1.8,1.5c-0.5,0.5-0.8,1-0.8,1.3
		c0,0.2,0,0.4,0.1,0.6c0.1,0.2,0.2,0.5,0.3,0.6c0.1,0.2,0.2,0.4,0.4,0.7c0.2,0.3,0.3,0.5,0.3,0.5c1.4,2.6,3.1,4.8,4.9,6.7
		c1.9,1.9,4.1,3.5,6.7,4.9c0.1,0.1,0.3,0.2,0.5,0.3c0.3,0.2,0.5,0.3,0.7,0.4c0.2,0.1,0.4,0.2,0.6,0.3c0.2,0.1,0.5,0.1,0.6,0.1
		c0.4,0,1-0.4,1.7-1.3c0.7-0.9,1.5-1.7,2.2-2.6s1.4-1.3,1.8-1.3c0.3,0,0.5,0.1,0.8,0.2c0.3,0.1,0.6,0.3,1,0.6
		c0.4,0.3,0.6,0.4,0.7,0.5l2.1,1.1c1.4,0.7,2.5,1.4,3.5,1.9s1.4,0.9,1.5,1.1c0.1,0.1,0.1,0.3,0.1,0.6C50,42.8,49.7,44.2,49.1,45.5z"
		/>
</g>
</svg>
